<svg xmlns="http://www.w3.org/2000/svg" xmlns:xlink="http://www.w3.org/1999/xlink" xml:space="preserve" style="shape-rendering:geometricPrecision;text-rendering:geometricPrecision;image-rendering:optimizeQuality;" viewBox="0 0 6.82666 8.533325000000001" x="0px" y="0px" fill-rule="evenodd" clip-rule="evenodd"><defs><style type="text/css">
   
    .fil2 {fill:none}
    .fil1 {fill:black}
    .fil0 {fill:black;fill-rule:nonzero}
   
  </style></defs><g><g><path class="fil0" d="M1.05645 1.15252l4.71376 0c0.0475945,0 0.086185,0.0385906 0.086185,0.086185l0 0.505685c0,0.0475984 -0.0385906,0.086185 -0.086185,0.086185l-4.71376 0c-0.0475945,0 -0.086185,-0.0385866 -0.086185,-0.086185l0 -0.505685c0,-0.0475945 0.0385906,-0.086185 0.086185,-0.086185z"/><path class="fil1" d="M4.15911 0.848472c-0.0101654,-0.0072874 -0.0250157,-0.00992913 -0.0371339,-0.00992913l-1.27073 0c-0.0121181,0 -0.0269646,0.00264173 -0.0371339,0.00992913l0 0.389646c0,0.071378 -0.0578937,0.129272 -0.129272,0.129272 -0.071378,0 -0.129272,-0.0578937 -0.129272,-0.129272l0 -0.399492c0,-0.0776299 0.0381614,-0.146213 0.0988465,-0.193386 0.0557047,-0.0432913 0.126602,-0.0652441 0.196831,-0.0652441l1.27073 0c0.0702283,0 0.14113,0.0219528 0.196831,0.0652441 0.060685,0.0471732 0.0988504,0.115756 0.0988504,0.193386l0 0.399492c0,0.071378 -0.0578937,0.129272 -0.129272,0.129272 -0.0713819,0 -0.129276,-0.0578937 -0.129276,-0.129272l0 -0.389646z"/><path class="fil1" d="M4.35499 2.81938l0 2.52465 -0.17237 0 0 -2.52465 0.17237 0zm-1.02784 0l0.17237 0 0 2.52465 -0.17237 0 0 -2.52465zm-0.683102 0l0 2.52465 -0.17237 0 0 -2.52465 0.17237 0zm-1.23793 -0.90263l3.93701e-006 3.8457c-3.93701e-006,0.0217795 0.00820079,0.0435827 0.0246575,0.0603543l0.000251969 -9.05512e-005 0.385854 0.393343c0.015811,0.0187126 0.0394449,0.0306024 0.0658583,0.0306024l1.43688 0 0.0937126 0 0.0936811 0 1.43691 -7.87402e-006c0.0223346,0 0.0446496,-0.00862205 0.0615236,-0.0258228l-0.000177165 -0.000173228 0.385925 -0.393417c0.0179961,-0.0157953 0.0293543,-0.0389606 0.0293543,-0.0647874l0 -3.8457 -4.01443 0z"/></g></g><rect class="fil2" width="6.82666" height="6.82666"/><text x="0" y="21.82666" fill="#000000" font-size="5px" font-weight="bold" font-family="'Helvetica Neue', Helvetica, Arial-Unicode, Arial, Sans-serif">Created by IYIKON</text><text x="0" y="26.82666" fill="#000000" font-size="5px" font-weight="bold" font-family="'Helvetica Neue', Helvetica, Arial-Unicode, Arial, Sans-serif">from the Noun Project</text></svg>